<svg xmlns="http://www.w3.org/2000/svg" fill="none" width="91.781" height="90.944"><path d="M68.146 59.787c-6.517-.015-12.722-1.167-18.237-4.669-6.776-4.3-6.776-10.661-.039-14.939 10.05-6.384 27.293-6.267 37.273.259 6.142 4.019 6.04 10.607-.22 14.516-5.71 3.556-12.048 4.872-18.777 4.833Z" fill="#FFF" fill-opacity=".6"/><path d="M1.826 61.737c10.254 10.764 23.11 13.028 36.78 13.608-.44 6.063.744 11.014 5.57 14.704l-.118.869c-2.938 0-4.889.086-7.818-.055-9.847-.493-19.295-2.42-27.56-7.896-5.342-3.541-9.126-8.1-8.577-14.736.156-1.997 1.018-3.94 1.723-6.494Z" fill="#FFF"/><path d="M46.126 58.142c10.168 10.889 35.134 9.901 44.064.203 2.343 2.836 2.108 6.628-.767 9.761-3.784 4.136-8.915 5.79-14.367 6.635-9.15 1.426-17.9.58-25.656-4.77-4.614-3.18-5.719-7.529-3.274-11.83Z" fill="#FFF" fill-opacity=".6"/><path d="M46.086 73.496c9.863 10.858 34.727 10.45 44.136.353 2.295 2.984 2.02 6.744-.8 9.815-4.167 4.528-9.823 6.11-15.76 6.87-8.657 1.105-16.96.118-24.223-4.997-4.637-3.26-5.781-7.497-3.353-12.04Z" fill="#FFF" fill-opacity=".6"/><path d="m76.99 21.911-.007-.008c.87-4.849-1.692-10.02-6.957-13.56C60.58 1.998 49.776.266 36.991 0c-2.091.204-5.695.47-9.283.917-7.395.924-14.296 3.211-20.407 7.348-9.267 6.282-9.792 15.37-1.12 22.341 2.578 2.076 5.664 3.714 8.758 5.045 6.596 2.86 13.686 3.737 20.87 4.191l.477.024c.33.016.65.023.972.016 1.997.031 4.05-.008 4.778-.133.447-.894 2.311-2.797 3.126-3.604 6.486-5.32 14.72-6.69 23.078-6.4q2.71.078 4.372.274c2.663-1.77 3.854-5.781 4.238-7.41.023-.08.039-.158.054-.236q.055-.282.087-.462Zm-35.847 32.29q-.814-1.253-1.77-4.237l-3.377-.079c-12.69-.705-24.449-3.634-33.622-13.05-3.744 5.444-3 11.899 1.927 16.928 6.51 6.635 15.08 9.299 24.105 10.858a39.53 39.53 0 0 0 3.556.43c2.789.314 6.126.557 7.372.486-.815-4.457.391-8.93 1.81-11.335Zm4.943 19.295c-2.428 4.536-1.284 8.774 3.353 12.04a29.377 29.377 0 0 0 3.753 2.233 68.581 68.581 0 0 0 8.147-6.823c-6.095-1.042-11.665-3.494-15.253-7.45Zm27.058-7.826c-9.94 1.168-21.041-1.12-27.026-7.528-2.444 4.3-1.34 8.649 3.282 11.837 5.288 3.65 11.046 5.201 17.086 5.366a69.022 69.022 0 0 0 6.658-9.675ZM49.87 40.18c-6.737 4.284-6.737 10.645.04 14.938 5.522 3.502 11.726 4.654 18.236 4.67 2.844.015 5.625-.212 8.312-.753a68.407 68.407 0 0 0 5.397-21.214c-10.02-3.768-23.532-3.016-31.985 2.358Z" fill="#FFF"/></svg>