<svg xmlns="http://www.w3.org/2000/svg" xmlns:xlink="http://www.w3.org/1999/xlink" fill="none" version="1.1" width="33.89487266540527" height="33" viewBox="0 0 33.89487266540527 33"><g><path d="M0.882268,-0.0012700000000001044L0.8884,7.21518L0.888927,7.83575L19.4028,26.3496L17.1146,28.6394L21.5237,33.048500000000004L25.5288,29.0434L30.1067,33.6213L34.516,29.212L29.9395,24.6339L33.9431,20.6286L29.5343,16.2198L27.2445,18.5079L8.7436,0.00537999999999994L0.882268,-0.0012700000000001044ZM25.1573,-0.0005299999999999194L18.1734,6.98163L17.1124,8.04244L24.956,15.8838L33.0149,7.82688L33.0105,0.006119999999999903L25.1573,-0.0005299999999999194ZM3.88787,6.59205L23.6447,26.3489L21.3565,28.6386L21.5237,28.8058L25.5288,24.8008L30.1067,29.3787L30.2737,29.2117L25.6977,24.634L29.7009,20.6291L29.5335,20.4617L27.2437,22.7499L7.49984,3.00433L3.88482,3.00127L3.88787,6.59205ZM21.3556,8.04241L24.9559,11.6418L30.0142,6.58473L30.0122,3.00359L26.3987,3.00053L21.3556,8.04241ZM9.55887,16.839100000000002L8.31405,16.839100000000002L6.6484,18.5059L4.36062,16.2198L-0.0486899999999999,20.6291L3.95657,24.6327L-0.62113,29.212L3.78815,33.6213L8.36607,29.0434L12.3711,33.048500000000004L16.7806,28.639L14.4905,26.3489L16.776699999999998,24.061L9.55887,16.839100000000002ZM8.93656,20.4603L6.6499,22.7486L4.36137,20.4617L4.194380000000001,20.6286L8.19927,24.6319L3.62113,29.2117L3.78815,29.3787L8.36607,24.8008L12.3711,28.8058L12.538,28.639L10.24858,26.3496L12.5354,24.0612L8.93656,20.4603Z" fill-rule="evenodd" fill="#FF7D37" fill-opacity="1"/></g></svg>