<svg xmlns="http://www.w3.org/2000/svg" xmlns:xlink="http://www.w3.org/1999/xlink" fill="none" version="1.1" width="36.646484375" height="34" viewBox="0 0 36.646484375 34"><g><g><path d="M32.95952578125,15.312272421875Q32.95952578125,15.447262421875,32.95292578125,15.582102421875Q32.94622578125,15.716932421875,32.93302578125,15.851272421874999Q32.91982578125,15.985612421875,32.90002578125,16.119152421875Q32.88022578125,16.252682421875,32.85382578125,16.385082421875Q32.82752578125,16.517482421875002,32.79472578125,16.648432421875Q32.76192578125,16.779382421875,32.72272578125,16.908562421875Q32.68352578125,17.037742421875002,32.63802578125,17.164842421875Q32.59252578125,17.291942421875,32.540925781249996,17.416662421875Q32.48922578125,17.541382421875,32.43152578125,17.663412421875Q32.37382578125,17.785452421875,32.31022578125,17.904502421875Q32.24652578125,18.023552421875,32.17712578125,18.139342421875Q32.10772578125,18.255132421875,32.03272578125,18.367372421875Q31.95775578125,18.479622421875,31.87733578125,18.588042421875002Q31.79691578125,18.696472421875,31.711275781250002,18.800832421875Q31.62563578125,18.905182421875,31.53498578125,19.005202421874998Q31.44432578125,19.105222421875,31.34887578125,19.200682421875Q31.25341578125,19.296132421875,31.153395781249998,19.386792421875Q31.05337578125,19.477452421875,30.94901578125,19.563092421874998Q30.84466578125,19.648722421875,30.736235781250002,19.729142421875Q30.62780578125,19.809562421875,30.51556578125,19.884532421875Q30.40332578125,19.959532421875,30.28753578125,20.028932421875Q30.17174578125,20.098332421875,30.05269578125,20.162032421875Q29.93363578125,20.225632421874998,29.81160578125,20.283332421875002Q29.68957578125,20.341032421875,29.56485578125,20.392732421875Q29.44013578125,20.444432421875,29.31303578125,20.489832421875Q29.185935781250002,20.535332421874998,29.05675578125,20.574532421875Q28.92756578125,20.613732421875,28.79662578125,20.646532421875Q28.665675781250002,20.679332421875,28.53327578125,20.705632421875002Q28.40087578125,20.732032421874997,28.26733578125,20.751832421875Q28.13380578125,20.771632421874997,27.99946578125,20.784832421875002Q27.86512578125,20.798032421875,27.73028578125,20.804732421875002Q27.59545578125,20.811332421875,27.46046578125,20.811332421875Q27.32547578125,20.811332421875,27.190635781250002,20.804732421875002Q27.05580578125,20.798032421875,26.92146578125,20.784832421875002Q26.78712578125,20.771632421874997,26.65358578125,20.751832421875Q26.52005578125,20.732032421874997,26.38765578125,20.705632421875002Q26.25525578125,20.679332421875,26.12430578125,20.646532421875Q25.99335578125,20.613732421875,25.86417578125,20.574532421875Q25.73499578125,20.535332421874998,25.60789578125,20.489832421875Q25.48079578125,20.444432421875,25.35607578125,20.392732421875Q25.23135578125,20.341032421875,25.10932578125,20.283332421875002Q24.98728578125,20.225632421874998,24.86823578125,20.162032421875Q24.74918578125,20.098332421875,24.63339578125,20.028932421875Q24.51760578125,19.959532421875,24.40536578125,19.884532421875Q24.293115781250002,19.809562421875,24.18469578125,19.729142421875Q24.07626578125,19.648722421875,23.97191578125,19.563092421874998Q23.86755578125,19.477452421875,23.76753578125,19.386792421875Q23.66751578125,19.296132421875,23.57205578125,19.200682421875Q23.47660578125,19.105222421875,23.38594578125,19.005202421874998Q23.29528578125,18.905182421875,23.20964578125,18.800832421875Q23.12401578125,18.696472421875,23.04359578125,18.588052421875Q22.96317578125,18.479622421875,22.88818078125,18.367372421875Q22.81318278125,18.255132421875,22.74378178125,18.139342421875Q22.67438078125,18.023552421875,22.61074578125,17.904502421875Q22.54710978125,17.785452421875,22.48939278125,17.663412421875Q22.43167478125,17.541382421875,22.38001478125,17.416662421875Q22.32835578125,17.291942421875,22.28287678125,17.164842421875Q22.23739878125,17.037742421875002,22.19821278125,16.908562421875Q22.15902578125,16.779382421875,22.12622478125,16.648432421875Q22.09342378125,16.517482421875002,22.06708778125,16.385082421875Q22.04075228125,16.252682421875,22.02094458125,16.119152421875Q22.00113688125,15.985612421875,21.98790518125,15.851272421874999Q21.97467348125,15.716932421875,21.96804961125,15.582102421875Q21.96142578125,15.447262421875,21.96142578125,15.312272421875Q21.96142578125,15.177282421874999,21.96804961125,15.042452421875Q21.97467348125,14.907612421875001,21.98790518125,14.773272421875Q22.00113688125,14.638932421875001,22.02094458125,14.505392421875001Q22.04075228125,14.371862421875,22.06708778125,14.239462421875Q22.09342378125,14.107062421875,22.12622478125,13.976112421875001Q22.15902578125,13.845162421875,22.19821278125,13.715982421875001Q22.23739878125,13.586802421875,22.28287678125,13.459702421875Q22.32835578125,13.332602421875,22.38001478125,13.207882421875Q22.43167478125,13.083162421875,22.48939278125,12.961132421875Q22.54710978125,12.839092421875,22.61074578125,12.720042421875Q22.67438078125,12.600992421875,22.74378178125,12.485202421875Q22.81318278125,12.369412421875,22.88818078125,12.257172421875Q22.96317578125,12.144922421875,23.04359578125,12.036502421875Q23.12401578125,11.928072421875001,23.20964578125,11.823722421875Q23.29528578125,11.719362421875001,23.38594578125,11.619342421875Q23.47660578125,11.519322421875,23.57205578125,11.423862421875Q23.66751578125,11.328412421875,23.76753578125,11.237752421875Q23.86755578125,11.147092421875,23.97191578125,11.061452421875Q24.07626578125,10.975822421875,24.18469578125,10.895402421875Q24.293115781250002,10.814982421875,24.40536578125,10.739987421875Q24.51760578125,10.664989421875,24.63339578125,10.595588421875Q24.74918578125,10.526187421875001,24.86823578125,10.462552421875Q24.98728578125,10.398916421875,25.10932578125,10.341199421875Q25.23135578125,10.283481421875,25.35607578125,10.231821421875Q25.48079578125,10.180162421875,25.60789578125,10.134684421875Q25.73499578125,10.089205421875,25.86417578125,10.050019421875Q25.99335578125,10.010832421875,26.12430578125,9.978031421875Q26.25525578125,9.945230421875,26.38765578125,9.918895421875Q26.52005578125,9.892558921875,26.65358578125,9.872751221875Q26.78712578125,9.852943521875,26.92146578125,9.839711821875Q27.05580578125,9.826480121875,27.190635781250002,9.819856251875Q27.32547578125,9.813232421875,27.46046578125,9.813232421875Q27.59545578125,9.813232421875,27.73028578125,9.819856251875Q27.86512578125,9.826480121875,27.99946578125,9.839711821875Q28.13380578125,9.852943521875,28.26734578125,9.872751221875Q28.40087578125,9.892558921875,28.53327578125,9.918895421875Q28.665675781250002,9.945230421875,28.79662578125,9.978031421875Q28.92757578125,10.010832421875,29.05675578125,10.050019421875Q29.185935781250002,10.089205421875,29.31303578125,10.134684421875Q29.44013578125,10.180162421875,29.56485578125,10.231821421875Q29.68957578125,10.283481421875,29.81160578125,10.341199421875Q29.93363578125,10.398916421875,30.05269578125,10.462552421875Q30.17174578125,10.526187421875001,30.28753578125,10.595588421875Q30.40332578125,10.664989421875,30.51556578125,10.739987421875Q30.62780578125,10.814982421875,30.736235781250002,10.895402421875Q30.84466578125,10.975822421875,30.94901578125,11.061452421875Q31.05337578125,11.147092421875,31.153395781249998,11.237752421875Q31.25341578125,11.328412421875,31.34887578125,11.423862421875Q31.44432578125,11.519322421875,31.53498578125,11.619342421875Q31.62563578125,11.719362421875001,31.711275781250002,11.823722421875Q31.79691578125,11.928072421875001,31.87733578125,12.036502421875Q31.95775578125,12.144922421875,32.03272578125,12.257172421875Q32.10772578125,12.369412421875,32.17712578125,12.485202421875Q32.24652578125,12.600992421875,32.31022578125,12.720042421875Q32.37382578125,12.839092421875,32.43152578125,12.961132421875Q32.48922578125,13.083162421875,32.540925781249996,13.207882421875Q32.59252578125,13.332602421875,32.63802578125,13.459702421875Q32.68352578125,13.586802421875,32.72272578125,13.715982421875001Q32.76192578125,13.845162421875,32.79472578125,13.976112421875001Q32.82752578125,14.107062421875,32.85382578125,14.239462421875Q32.88022578125,14.371862421875,32.90002578125,14.505392421875001Q32.91982578125,14.638932421875001,32.93302578125,14.773272421875Q32.94622578125,14.907612421875001,32.95292578125,15.042452421875Q32.95952578125,15.177282421874999,32.95952578125,15.312272421875Z" fill="#3D3D3D" fill-opacity="1"/></g><g><path d="M36.64664758605957,30.758758046875002C36.64664758605957,26.758168046875,34.08954758605957,23.358168046875,30.52264758605957,22.097926746875C30.32104758605957,22.026669646875,30.099147586059573,22.114214546875,30.003447586059572,22.305591046875L27.88609758605957,27.639718046875C27.73339758605957,28.026548046875,27.18777758605957,28.026548046875,27.03304758605957,27.639718046875L24.91567758605957,22.305591046875C24.82014758605957,22.114932246875,24.59718758605957,22.025751646875,24.39651758605957,22.097926746875C20.82956758605957,23.358168046875,18.27244758605957,26.760198046875,18.27244758605957,30.758758046875002L18.27244758605957,31.253488046875C18.27244758605957,33.193698046875,24.08298758605957,33.999998046875,27.45854758605957,33.999998046875C30.834147586059572,33.999998046875,36.64664758605957,33.193698046875,36.64664758605957,31.253488046875L36.64664758605957,30.758758046875002Z" fill="#3D3D3D" fill-opacity="1"/></g><g><path d="M15.8965,31.2535L15.8965,30.7608C15.8965,26.5627,18.1768,22.7454,21.7356,20.7135C20.4041,19.3026,19.5836,17.4011,19.5836,15.3122C19.5836,10.9696,23.1159,7.43521,27.4606,7.43521C27.8372,7.43521,28.2057,7.46371,28.5661,7.51461L28.5661,1.42719C28.5661,0.639281,27.9268,0,27.1389,0L1.38036,0C0.618922,0,0,0.618922,0,1.38036L0,32.1412C0,32.9026,0.618922,33.5215,1.38036,33.5215L16.7618,33.5215C16.1897,32.8721,15.8965,32.1168,15.8965,31.2535ZM5.11018,4.64191L15.809,4.64191C16.6365,4.64192,17.3074,5.31279,17.3074,6.14036C17.3074,6.96792,16.6365,7.6388,15.809,7.6388L5.11018,7.6388C4.28261,7.6388,3.61174,6.96792,3.61173,6.14036C3.61173,5.31173,4.28156,4.64191,5.11018,4.64191ZM12.4782,13.997L5.11018,13.997C4.28261,13.997,3.61174,13.3261,3.61174,12.4986C3.61174,11.671,4.28261,11.0001,5.11018,11.0001L12.4802,11.0001C13.3078,11.0001,13.9787,11.671,13.9787,12.4986C13.9766,13.3272,13.3048,13.997,12.4782,13.997ZM12.4782,20.3348L5.11018,20.3348C4.28261,20.3348,3.61174,19.664,3.61174,18.8364C3.61174,18.0088,4.28261,17.338,5.11018,17.338L12.4802,17.338C13.3078,17.338,13.9787,18.0088,13.9787,18.8364C13.9766,19.665,13.3048,20.3348,12.4782,20.3348Z" fill="#3D3D3D" fill-opacity="1"/></g></g></svg>