<svg xmlns="http://www.w3.org/2000/svg" xmlns:xlink="http://www.w3.org/1999/xlink" fill="none" version="1.1" width="30.600040435791016" height="34" viewBox="0 0 30.600040435791016 34"><g><path d="M30.6,11.9L30.6,32.2881C30.6066,33.227,29.8508,33.9935,28.9119,34L1.6881,34C0.756451,34,0.000938296,33.2452,0,32.3136L0,1.6864C0,0.7735,0.7599,0,1.6966,0L18.7,0L18.7,10.2C18.7,11.1389,19.4611,11.9,20.4,11.9L30.6,11.9ZM30.6,8.5L22.1,8.5L22.1,0.00510004L30.6,8.5ZM8.5,8.5L8.5,11.9L13.6,11.9L13.6,8.5L8.5,8.5ZM8.5,15.3L8.5,18.7L22.1,18.7L22.1,15.3L8.5,15.3ZM8.5,22.1L8.5,25.5L22.1,25.5L22.1,22.1L8.5,22.1Z" fill="#3D3D3D" fill-opacity="1"/></g></svg>