<svg xmlns="http://www.w3.org/2000/svg" xmlns:xlink="http://www.w3.org/1999/xlink" fill="none" version="1.1" width="33.999996185302734" height="34" viewBox="0 0 33.999996185302734 34"><g><path d="M17,34C7.61147,34,0,26.3885,0,17C0,7.61147,7.61147,0,17,0C26.3885,0,34,7.61147,34,17C34,26.3885,26.3885,34,17,34ZM14.9079,15.8667L14.9079,24.2363C14.9079,25.2954,15.7664,26.1539,16.8255,26.1539C17.8845,26.1539,18.7431,25.2954,18.7431,24.2363L18.7431,15.8667C18.7431,14.8076,17.8845,13.9491,16.8255,13.9491C15.7664,13.9491,14.9079,14.8076,14.9079,15.8667ZM16.8119,7.84607C16.2905,7.84607,15.8474,8.007,15.4813,8.38213C15.0903,8.7312,14.9079,9.1868,14.9079,9.7512C14.9079,10.2873,15.0903,10.7429,15.4813,11.1191C15.8474,11.4943,16.2905,11.6824,16.813,11.6824C17.325,11.6832,17.8185,11.4914,18.1957,11.1452C18.5606,10.7701,18.7431,10.3145,18.7431,9.7512C18.7431,9.18793,18.5617,8.7312,18.1957,8.38213C17.8307,8.00813,17.3604,7.84607,16.813,7.84607L16.8119,7.84607Z" fill="#3D3D3D" fill-opacity="1"/></g></svg>