<svg xmlns="http://www.w3.org/2000/svg" xmlns:xlink="http://www.w3.org/1999/xlink" fill="none" version="1.1" width="42.5693359375" height="34" viewBox="0 0 42.5693359375 34"><g><path d="M10.9563,7.0335L18.361,1.4875C20.3876,-0.0296063,23.0455,-0.414971,25.4195,0.464091L37.1963,4.92647C37.9582,5.21532,38.7669,5.36074,39.5817,5.3554L41.5307,5.3554C42.0935,5.33854,42.5611,5.78577,42.5692,6.34872L42.5692,20.684C42.5571,21.2512,42.098,21.707,41.5307,21.715L38.9722,21.715C38.6119,21.7171,38.2625,21.8388,37.9789,22.0611L37.4145,22.5352C37.2672,22.6494,37.0565,22.6297,36.9329,22.4901L23.2071,5.93484C22.856,5.51352,22.2528,5.40558,21.7774,5.67898L15.5014,9.14053C14.2344,9.82907,12.7236,9.90655,11.3927,9.35123C10.6818,9.04408,10.3472,8.22451,10.6402,7.50758C10.6587,7.30847,10.7704,7.12986,10.9412,7.02598L10.9563,7.0335ZM3.46155,22.934L1.25669,22.934C0.687272,22.8939,0.194815,22.5224,0,21.9858L0,7.68811C0.0204305,7.13293,0.483049,6.69713,1.03846,6.70985L8.35286,6.70985C8.443,6.7036,8.53332,6.71908,8.61624,6.755C8.87638,6.8927,8.96037,7.22515,8.79684,7.46988C8.23863,8.38379,8.09631,9.49226,8.40553,10.5175C8.78502,11.5264,9.59268,12.3147,10.6104,12.6697C12.4597,13.3528,14.5148,13.1962,16.2392,12.2408L21.6046,9.27591C21.7652,9.1904,21.9633,9.22446,22.0862,9.35868L33.2986,22.9039L34.6832,24.582C34.7799,24.6902,34.868,24.806,34.9466,24.9281C35.5888,25.9906,35.2527,27.3723,34.194,28.0209C33.2972,28.5365,32.1672,28.3952,31.4248,27.6748L31.2517,27.5017L31.2066,27.5017C31.3599,28.3767,30.9859,29.2603,30.2509,29.7592C29.3208,30.361,28.0975,30.2359,27.3086,29.4582L27.1355,29.2851L27.0904,29.2851L27.0904,29.3303C27.2548,30.2112,26.8828,31.1059,26.1422,31.6104C25.2121,32.2122,23.9888,32.087,23.1999,31.3094L23.0268,31.1363L22.9816,31.1363L22.9816,31.189C23.1088,31.7842,22.9835,32.4054,22.6355,32.9047C21.9203,33.9372,20.4999,34.1875,19.475,33.4616L19.475,33.4164L19.6932,33.0251C20.6294,31.4539,20.3982,29.4505,19.1288,28.1338C18.529,27.5403,17.7576,27.1506,16.9239,27.0201C16.4356,26.1468,15.6256,25.4988,14.6664,25.2141C14.2878,23.8846,13.2346,22.8543,11.8972,22.505C11.6689,21.7349,11.2187,21.0491,10.6029,20.5335C8.91231,19.1522,6.42611,19.3834,5.01924,21.0527L3.46155,22.934ZM8.67624,22.4975C7.82557,22.0235,6.75609,22.2445,6.16285,23.0167L4.65783,24.8603C3.99342,25.6655,4.11163,26.8577,4.92121,27.5167L4.96636,27.5167L5.18459,27.6898C5.80346,28.1335,6.62103,28.1861,7.29162,27.8252C7.33351,27.7833,7.36892,27.8192,7.40988,27.8606C7.41307,27.8639,7.41629,27.8671,7.41954,27.8704L7.41954,27.9532C7.2881,28.6488,7.55505,29.3597,8.11185,29.7968L8.28493,29.9247C8.88356,30.3773,9.68453,30.4586,10.3619,30.1354C10.4086,30.102,10.4744,30.1252,10.4898,30.1806L10.4898,30.2257C10.4313,30.8886,10.715,31.5355,11.2423,31.9415L11.3702,32.0242C11.9595,32.5073,12.786,32.5762,13.4471,32.1973C13.4939,32.1639,13.5597,32.1871,13.5751,32.2425L13.5751,32.3403C13.6656,32.822,13.9343,33.2519,14.3276,33.5443L14.4104,33.5895C15.2594,34.2514,16.4849,34.0961,17.142,33.2433C17.1874,33.1638,17.2459,33.0926,17.315,33.0326L17.5784,32.5585C18.0731,31.7519,17.9142,30.7061,17.2022,30.0828C16.6152,29.5544,15.7731,29.419,15.05,29.7366C15.0048,29.7366,15.0048,29.7366,14.9672,29.6915L14.9672,29.6463C14.9905,28.5977,14.1917,27.7131,13.1461,27.6296C12.8902,27.6335,12.6365,27.6767,12.3936,27.7575Q12.2303,27.782,12.18,27.7179Q12.1376,27.6638,12.1754,27.5468C12.5791,26.5722,12.1134,25.4552,11.1369,25.056C10.6033,24.8486,10.0065,24.8787,9.49647,25.1388Q9.38736,25.1614,9.34409,25.1181Q9.30082,25.0748,9.32339,24.9657C9.87368,24.1101,9.57485,22.9668,8.67624,22.4899L8.67624,22.4975Z" fill-rule="evenodd" fill="#3D3D3D" fill-opacity="1"/></g></svg>