<svg xmlns="http://www.w3.org/2000/svg" xmlns:xlink="http://www.w3.org/1999/xlink" fill="none" version="1.1" width="5.333333996358277" height="9.333334257161471" viewBox="0 0 5.333333996358277 9.333334257161471"><g transform="matrix(1,-5.400848479553133e-8,5.400848479553133e-8,1,-1.5556888097878918e-14,0)"><path d="M5.13807,0.19526228804526097C5.39842,0.45561128804526096,5.39842,0.8777202880452609,5.13807,1.138070288045261C5.13807,1.138070288045261,1.60947,4.66667028804526,1.60947,4.66667028804526C1.60947,4.66667028804526,5.13807,8.195270288045261,5.13807,8.195270288045261C5.39842,8.455600288045261,5.39842,8.87773028804526,5.13807,9.138070288045261C4.87772,9.398400288045261,4.45561,9.398400288045261,4.19526,9.138070288045261C4.19526,9.138070288045261,0.195262,5.138070288045261,0.195262,5.138070288045261C-0.0650874,4.877720288045261,-0.0650874,4.455610288045261,0.195262,4.195260288045262C0.195262,4.195260288045262,4.19526,0.19526228804526097,4.19526,0.19526228804526097C4.45561,-0.06508711195473903,4.87772,-0.06508711195473903,5.13807,0.19526228804526097C5.13807,0.19526228804526097,5.13807,0.19526228804526097,5.13807,0.19526228804526097Z" fill-rule="evenodd" fill="#797979" fill-opacity="1"/></g></svg>