<svg xmlns="http://www.w3.org/2000/svg" fill="none" width="17.5" height="20"><path d="M2.5 1.25A2.5 2.5 0 0 0 5 3.75h7.5a2.5 2.5 0 0 0 2.5-2.5h1.875c.345 0 .625.28.625.625v17.5c0 .345-.28.625-.625.625H.625A.625.625 0 0 1 0 19.375v-17.5c0-.345.28-.625.625-.625H2.5ZM14.375 15H3.125a.625.625 0 0 0-.625.625v1.25c0 .345.28.625.625.625h11.25c.345 0 .625-.28.625-.625v-1.25a.625.625 0 0 0-.625-.625ZM9.16 6.099l-3.978 3.976L3.857 8.75a.625.625 0 0 0-.883 0l-.884.884a.625.625 0 0 0 0 .883l2.65 2.653.087.071a.625.625 0 0 0 .798-.071l5.304-5.304a.625.625 0 0 0 0-.883l-.884-.884a.625.625 0 0 0-.885 0ZM14.375 10h-2.5a.625.625 0 0 0-.625.625v1.25c0 .345.28.625.625.625h2.5c.345 0 .625-.28.625-.625v-1.25a.625.625 0 0 0-.625-.625Zm-1.25-10c.345 0 .625.28.625.625v.625c0 .69-.56 1.25-1.25 1.25H5c-.69 0-1.25-.56-1.25-1.25V.625C3.75.28 4.03 0 4.375 0h8.75Z" fill="#3D3D3D"/></svg>