<svg xmlns="http://www.w3.org/2000/svg" fill="none" width="20" height="20.391"><path d="M17.4 9.37c.504 0 .984-.097 1.423-.272v4.207q0 1.588-1.374 2.38l-3.607 2.084a3.848 3.848 0 0 0-2.791-3.677v-3.78l2.807-1.62.808-.466A3.83 3.83 0 0 0 17.4 9.37Zm-3.709-2.832a3.85 3.85 0 0 1 1.328-4.036L11.372.398q-1.376-.796-2.75 0l-3.641 2.1a3.84 3.84 0 0 1 1.35 3.958l3.75 2.167 2.802-1.618.808-.467Zm-8.3 1.63a3.835 3.835 0 0 1-2.793 1.2c-.506 0-.989-.098-1.43-.274v4.21q0 1.589 1.375 2.381L6.15 17.77a3.848 3.848 0 0 1 2.952-3.72v-3.74L5.391 8.167Zm13.848-.81Q20 6.598 20 5.52q0-1.076-.761-1.836-.762-.763-1.837-.763-1.078 0-1.838.763-.762.76-.762 1.836 0 1.077.762 1.837.76.763 1.837.763 1.076 0 1.838-.763ZM17.953 4.97q.227.228.227.551 0 .324-.227.551-.229.229-.55.229-.326 0-.552-.229-.23-.227-.23-.55 0-.324.229-.552.229-.229.55-.229.326 0 .552.23h.001Zm-6.12 14.66q.762-.764.762-1.839 0-1.076-.763-1.836-.76-.763-1.836-.763-1.077 0-1.837.763-.762.76-.762 1.836 0 1.077.762 1.837.76.763 1.837.763 1.076 0 1.836-.763v.001Zm-1.286-2.391q.228.229.228.55 0 .326-.227.553-.229.23-.55.23-.326 0-.553-.23-.229-.229-.229-.55 0-.324.229-.552.229-.228.55-.228.324 0 .552.227Zm-6.11-9.881q.76-.76.76-1.837 0-1.076-.76-1.836-.763-.763-1.838-.763-1.076 0-1.836.763Q0 4.445 0 5.52q0 1.077.763 1.837.76.763 1.836.763 1.077 0 1.837-.763h.001ZM3.152 4.97q.226.228.226.551 0 .324-.226.551-.23.229-.553.229-.323 0-.55-.229-.23-.227-.23-.55 0-.324.23-.552.227-.229.55-.229.324 0 .551.23h.002Z" fill="#3D3D3D"/></svg>