<svg xmlns="http://www.w3.org/2000/svg" xmlns:xlink="http://www.w3.org/1999/xlink" fill="none" version="1.1" width="317" height="260" viewBox="0 0 317 260"><defs><filter id="master_svg0_1682_82126" filterUnits="objectBoundingBox" color-interpolation-filters="sRGB" x="-20" y="-16" width="327" height="270"><feFlood flood-opacity="0" result="BackgroundImageFix"/><feColorMatrix in="SourceAlpha" type="matrix" values="0 0 0 0 0 0 0 0 0 0 0 0 0 0 0 0 0 0 127 0"/><feOffset dy="4" dx="0"/><feGaussianBlur stdDeviation="5"/><feColorMatrix type="matrix" values="0 0 0 0 0 0 0 0 0 0 0 0 0 0 0 0 0 0 0.30000001192092896 0"/><feBlend mode="normal" in2="BackgroundImageFix" result="effect1_dropShadow"/><feBlend mode="normal" in="SourceGraphic" in2="effect1_dropShadow" result="shape"/></filter></defs><g><rect x="0" y="0" width="317" height="260" rx="0" fill="#EFEFEF" fill-opacity="1"/><g><path d="M243.30698,84.72908828125L252.405,77.29943828125C252.4994,77.22587828125,252.5702,77.12614828125,252.60829999999999,77.01267828125L254.772,70.86565028125C254.8533,70.63435628125,254.799,70.37704928125,254.6313,70.19828828125C254.4626,70.02092188125,254.2072,69.95604568125,253.9743,70.03144818125L247.8273,71.92925828125C247.7168,71.96270828125,247.6176,72.02582828125,247.5406,72.11173828125L239.61042,80.76658828125L239.45401,80.59978828125C238.96192,80.10788828125,238.17238,80.08278828125,237.65004,80.54238828125L236.70635,81.42868828125C236.19455,81.91618828125,236.169,82.72428828125,236.649,83.24308828125L237.21209,83.84268828125L234.386228,86.47568828125C234.14941,86.69398828125,234.0103663,86.99838828125,234.000409224,87.32028828125C233.99219608,87.64288828125,234.107875,87.95628828125,234.323663,88.19618828125L235.47069,89.42668828125C235.70175,89.67608828125,236.02748,89.81618828124999,236.36746,89.81248828125C236.67738,89.81098828125,236.97603,89.69598828125,237.20687,89.48918828125L240.01709,86.85628828125L240.58018,87.45588828125C240.82148,87.71488828125,241.15944,87.86218828125,241.51344,87.86248828125C241.8381,87.86398828125,242.1505,87.73858828125,242.38414,87.51318828125L243.32783,86.62688828125C243.57876,86.39498828125,243.72541,86.07158828125,243.73451,85.73008828125C243.75107,85.38888828125,243.62445,85.05628828125,243.38519,84.81248828125L243.30698,84.72908828125Z" fill="#333333" fill-opacity="1"/></g><g filter="url(#master_svg0_1682_82126)"><rect x="15" y="11" width="287" height="230" rx="14" fill="#FFFFFF" fill-opacity="1"/></g><g><path d="M236.20085046875,77.17937328125C236.23817046875,77.29327328125,236.30905046875,77.39323328125,236.40419046875,77.46613328125L238.92765046875,79.52556328125L243.62004046875,74.80189328125L241.29991046875,72.26800328125C241.21557046875,72.18334328125,241.11173046875,72.12068328125,240.99752046875,72.08552328125L234.85048846875,70.17207318125C234.61764846875,70.09667078125,234.36219846875,70.16154698125,234.19355446875,70.33891328125C234.02305026875,70.51822028125,233.96674416875,70.77763128125,234.04756856875,71.01148928125L236.20085046875,77.17937328125ZM254.43863046875,86.64231328125L251.62843046875,84.00941328125L252.19143046875,83.40981328125C252.42343046874998,83.17021328125,252.54773046875,82.84631328125,252.53553046875,82.51301328125C252.52763046875,82.17121328125,252.38083046875,81.84741328125,252.12893046875,81.61631328125L251.20603046875,80.70911328125C250.68223046875,80.24281328125,249.88503046875,80.26801328125,249.39163046875,80.76641328125L245.44483046875,84.98961328125C245.20743046875,85.23671328125,245.08123046875,85.57001328125,245.09553046875,85.91241328125C245.09813046875,86.24901328125,245.23293046875,86.57111328125,245.47093046875,86.80921328125L246.41463046875,87.69551328125C246.65213046875,87.91751328125,246.96543046875001,88.04061328125,247.29053046875,88.03961328125C247.64543046875,88.04381328125,247.98523046875,87.89581328125,248.22383046875,87.63301328125L248.78683046875,87.03341328125L251.59713046875,89.64031328125C251.82173046875,89.85491328124999,252.12063046875,89.97451328125,252.43133046875,89.97391328124999C252.76613046875,89.97241328125,253.08593046875,89.83501328125,253.31763046875,89.59331328125L254.46463046875,88.36291328125C254.69403046875,88.12121328125,254.81943046875,87.79931328125,254.81403046875,87.46611328125C254.79813046875,87.15381328125,254.66383046875,86.85931328125,254.43863046875,86.64231328125Z" fill="#3D3D3D" fill-opacity="1"/></g></g></svg>
