<svg xmlns="http://www.w3.org/2000/svg" fill="none" width="137.952" height="138"><path d="M60.595 31.946c-6.171 0-11.174 5.003-11.174 11.174 0 6.172 5.003 11.174 11.174 11.174 6.17 0 11.173-5.002 11.173-11.174s-5.002-11.174-11.173-11.174Zm0 15.954-4.781-4.78 4.78-4.781 4.781 4.78-4.78 4.781ZM81.682 24a7.8 7.8 0 1 0 0 15.599 7.8 7.8 0 0 0 0-15.599Zm0 11.136-3.338-3.337 3.338-3.337 3.336 3.337-3.336 3.337Z" fill="#FFF" fill-opacity=".8"/><path d="M111.727 66.5h-85a2.5 2.5 0 0 0-2.5 2.5v24.166q1.667 10.166 5.834 14 7.167 6.597 14 6.834h50.333q6.833-.237 14-6.834 4.166-3.834 5.833-14V69a2.5 2.5 0 0 0-2.5-2.5Zm-42.5 36.832L56.146 90.25l13.081-13.082L82.309 90.25l-13.082 13.082Z" fill="#FFF"/><path d="M58.932 63c-2.299-4.5-6.75-7.028-11.865-7.028C41.95 55.972 37.5 58.5 35.2 63h23.731Zm24.386 0 6.509-6.51L96.336 63h10.005c-.297-9-7.574-15.966-16.514-15.966S73.61 54 73.313 63h10.005Z" fill="#FFF" fill-opacity=".8"/></svg>