<svg xmlns="http://www.w3.org/2000/svg" xmlns:xlink="http://www.w3.org/1999/xlink" fill="none" version="1.1" width="18.33333396911621" height="16.533300399780273" viewBox="0 0 18.33333396911621 16.533300399780273"><g><path d="M0.833333,6.5333L3.33333,6.5333L3.33333,16.5333L0.833333,16.5333C0.373096,16.5333,0,16.1602,0,15.7L0,7.36663C0,6.9064,0.373096,6.5333,0.833333,6.5333ZM5.24417,5.4558L10.5775,0.122467C10.7241,-0.0245092,10.9564,-0.0412095,11.1225,0.0833001L11.8333,0.616633C12.237,0.91969,12.4188,1.43581,12.2942,1.92497L11.3333,5.69997L16.6667,5.69997C17.5871,5.69997,18.3333,6.44616,18.3333,7.36663L18.3333,9.11997C18.3336,9.33777,18.2911,9.5535,18.2083,9.75497L15.6292,16.0175C15.5005,16.3297,15.1961,16.5334,14.8583,16.5333L5.83333,16.5333C5.3731,16.5333,5,16.1602,5,15.7L5,6.04497C5.00005,5.82397,5.08788,5.61204,5.24417,5.4558Z" fill="#797979" fill-opacity="1"/></g></svg>