<svg xmlns="http://www.w3.org/2000/svg" xmlns:xlink="http://www.w3.org/1999/xlink" fill="none" version="1.1" width="15.509035110473633" height="18" viewBox="0 0 15.509035110473633 18"><g><path d="M0.128214,11.3965Q1.4454,11.1102,2.75304,11.4633Q4.06068,11.8165,5.09152,12.8091Q5.58785,13.3055,5.93146,13.9259Q6.27507,14.5463,6.45642,15.2144Q6.63777,15.8826,6.64732,16.5698Q6.65686,17.257,6.52324,17.887Q5.22514,18.1733,3.90796,17.7343Q2.59078,17.2952,1.57903,16.2834Q0.548186,15.2908,0.195028,13.9831Q-0.15813,12.6755,0.128214,11.3965ZM15.3808,11.3965Q15.6672,12.6755,15.314,13.9831Q14.9608,15.2908,13.9491,16.2834Q13.4528,16.7798,12.7846,17.1138Q12.1165,17.4479,11.372,17.6484Q10.6275,17.8488,9.83529,17.9156Q9.04307,17.9824,8.27948,17.9442L7.17229,17.9442L7.17229,10.7665Q6.06509,10.652,5.11061,10.1557Q4.36611,9.77388,3.7457,9.2012Q3.12528,8.62851,2.68622,7.92219Q2.24716,7.21588,1.999,6.39502Q1.75083,5.57417,1.75083,4.67696Q1.75083,3.47431,2.22807,2.34802Q3.14437,2.5771,3.9175,3.04479Q4.69063,3.51249,5.3015,4.18063Q5.47331,2.88253,6.15099,1.80397Q6.82867,0.725405,7.85951,0Q8.92853,0.725406,9.60621,1.8326Q10.2839,2.9398,10.4366,4.25699Q11.0475,3.58885,11.8302,3.10206Q12.6128,2.61528,13.5291,2.3862Q13.9682,3.47431,13.9682,4.67696Q13.9682,5.55508,13.7296,6.37593Q13.4909,7.19679,13.0423,7.9031Q12.5937,8.60942,11.9829,9.18211Q11.372,9.7548,10.6275,10.1366L10.6275,10.1557Q10.093,10.4229,9.52985,10.5852Q8.96671,10.7475,8.35584,10.7856L8.35584,15.9207Q8.58492,15.1381,9.06216,14.4222Q9.5394,13.7063,10.1694,13.0955Q10.6657,12.5991,11.3052,12.2174Q11.9447,11.8356,12.6319,11.6065Q13.3191,11.3774,14.0255,11.3201Q14.7318,11.2629,15.3808,11.3965Z" fill="#797979" fill-opacity="1"/></g></svg>