<svg xmlns="http://www.w3.org/2000/svg" xmlns:xlink="http://www.w3.org/1999/xlink" fill="none" version="1.1" width="18.33333396911621" height="16.533300399780273" viewBox="0 0 18.33333396911621 16.533300399780273"><g transform="matrix(1,0,0,-1,0,33.06660079956055)"><path d="M0.833333,23.066600399780274L3.33333,23.066600399780274L3.33333,33.06660039978027L0.833333,33.06660039978027C0.373096,33.06660039978027,0,32.69350039978028,0,32.233300399780276L0,23.899930399780274C0,23.43970039978027,0.373096,23.066600399780274,0.833333,23.066600399780274ZM5.24417,21.989100399780273L10.5775,16.655767399780274C10.7241,16.508791199780273,10.9564,16.492090899780273,11.1225,16.616600499780272L11.8333,17.149933399780274C12.237,17.452990399780273,12.4188,17.969110399780273,12.2942,18.458270399780275L11.3333,22.233270399780274L16.6667,22.233270399780274C17.5871,22.233270399780274,18.3333,22.979460399780272,18.3333,23.899930399780274L18.3333,25.653270399780276C18.3336,25.871070399780272,18.2911,26.086800399780273,18.2083,26.288270399780274L15.6292,32.55080039978027C15.5005,32.863000399780276,15.1961,33.066700399780274,14.8583,33.06660039978027L5.83333,33.06660039978027C5.3731,33.06660039978027,5,32.69350039978028,5,32.233300399780276L5,22.578270399780273C5.00005,22.357270399780273,5.08788,22.145340399780274,5.24417,21.989100399780273Z" fill="#797979" fill-opacity="1"/></g></svg>