<svg xmlns="http://www.w3.org/2000/svg" xmlns:xlink="http://www.w3.org/1999/xlink" fill="none" version="1.1" width="14.721024513244629" height="14" viewBox="0 0 14.721024513244629 14"><g><path d="M8.1861,1.2079L9.88451,3.69282C10.0148,3.88342,10.207,4.02308,10.4285,4.08809L13.3171,4.93574C13.9924,5.13388,14.2572,5.94896,13.8273,6.50612L11.9886,8.88943C11.8476,9.07223,11.7741,9.29819,11.7807,9.52898L11.8672,12.5376C11.8874,13.241,11.1941,13.7447,10.5313,13.5081L7.69674,12.4961C7.47931,12.4185,7.24172,12.4185,7.02429,12.4961L4.18968,13.5081C3.52697,13.7447,2.83367,13.241,2.85387,12.5376L2.94028,9.52898C2.9469,9.29819,2.87347,9.07223,2.73244,8.88943L0.893715,6.50612C0.463866,5.94896,0.728667,5.13388,1.4039,4.93574L4.2925,4.08809C4.51403,4.02308,4.70624,3.88342,4.83652,3.69282L6.53493,1.2079C6.93201,0.626938,7.78902,0.626938,8.1861,1.2079" fill="#FFD117" fill-opacity="1"/></g></svg>