<svg xmlns="http://www.w3.org/2000/svg" xmlns:xlink="http://www.w3.org/1999/xlink" fill="none" version="1.1" width="38" height="48" viewBox="0 0 38 48"><g><path d="M33.1743,0L4.82567,0C2.16108,0,0,1.9432,0,4.33913L0,43.6609C0,46.0568,2.16108,48,4.82567,48L16.7399,48L23.3646,48L33.1743,48C35.8389,48,38,46.0568,38,43.6609L38,4.33913C38,1.9432,35.8389,0,33.1743,0ZM14.3299,3.09284L23.6701,3.09284C24.134,3.09284,24.513,3.43366,24.513,3.85078C24.513,4.26791,24.134,4.60873,23.6701,4.60873L14.3299,4.60873C13.866,4.60873,13.487,4.26791,13.487,3.85078C13.487,3.43366,13.866,3.09284,14.3299,3.09284ZM19.0028,42.964C17.1246,42.964,15.6028,41.5956,15.6028,39.9067C15.6028,38.2179,17.1246,36.8495,19.0028,36.8495C20.881,36.8495,22.4029,38.2179,22.4029,39.9067C22.3972,41.5956,20.8754,42.964,19.0028,42.964ZM34.4699,31.6558C34.4699,32.256,33.9324,32.7393,33.2649,32.7393L4.73515,32.7393C4.06759,32.7393,3.53015,32.256,3.53015,31.6558L3.53015,8.56126C3.53015,7.961,4.06759,7.47775,4.73515,7.47775L33.2592,7.47775C33.9268,7.47775,34.4642,7.961,34.4642,8.56126L34.4642,31.6558L34.4699,31.6558Z" fill="#797979" fill-opacity="1"/></g></svg>
